<?xml version="1.0" encoding="UTF-8"?> <svg xmlns="http://www.w3.org/2000/svg" xmlns:xlink="http://www.w3.org/1999/xlink" width="170mm" height="130mm"><path fill-rule="evenodd" fill="rgb(255, 255, 255)" d="M-0.000,199.620 L0.123,170.398 L267.343,436.846 L615.000,86.186 L615.000,112.941 L285.108,443.381 L563.555,443.381 L486.325,309.849 L503.103,292.341 L608.091,471.000 L62.055,471.000 L129.909,354.236 L147.674,371.868 L106.715,443.504 L243.779,443.504 L-0.000,199.620 ZM176.049,323.535 L157.914,306.027 L337.294,-0.000 L448.574,195.798 L430.562,214.293 L337.170,50.552 L176.049,323.535 ZM411.563,277.545 L411.563,247.213 L574.905,82.363 L574.905,115.407 L411.563,277.545 ZM359.624,398.007 L343.586,398.007 L551.464,190.249 L566.145,190.249 L359.624,398.007 ZM457.210,330.316 L437.224,330.316 L523.459,244.501 L538.264,248.940 L457.210,330.316 Z"></path></svg> 